<?xml version="1.0" encoding="UTF-8" standalone="no"?>
<svg
   xmlns:dc="http://purl.org/dc/elements/1.1/"
   xmlns:cc="http://creativecommons.org/ns#"
   xmlns:rdf="http://www.w3.org/1999/02/22-rdf-syntax-ns#"
   xmlns:svg="http://www.w3.org/2000/svg"
   xmlns="http://www.w3.org/2000/svg"
   xmlns:sodipodi="http://sodipodi.sourceforge.net/DTD/sodipodi-0.dtd"
   xmlns:inkscape="http://www.inkscape.org/namespaces/inkscape"
   id="SVGRoot"
   version="1.1"
   viewBox="0 0 414 736"
   height="736px"
   width="414px"
   inkscape:version="1.0 (4035a4fb49, 2020-05-01)"
   sodipodi:docname="Tela cadastro.svg">
  <defs
     id="defs833" />
  <sodipodi:namedview
     id="base"
     pagecolor="#ffffff"
     bordercolor="#666666"
     borderopacity="1.0"
     inkscape:pageopacity="0.0"
     inkscape:pageshadow="2"
     inkscape:zoom="8.5448575"
     inkscape:cx="440.22141"
     inkscape:cy="97.561087"
     inkscape:document-units="px"
     inkscape:current-layer="layer1"
     inkscape:document-rotation="0"
     showgrid="false"
     inkscape:window-width="3840"
     inkscape:window-height="2126"
     inkscape:window-x="2869"
     inkscape:window-y="-11"
     inkscape:window-maximized="1" />
  <metadata
     id="metadata836">
    <rdf:RDF>
      <cc:Work
         rdf:about="">
        <dc:format>image/svg+xml</dc:format>
        <dc:type
           rdf:resource="http://purl.org/dc/dcmitype/StillImage" />
        <dc:title />
      </cc:Work>
    </rdf:RDF>
  </metadata>
  <g
     inkscape:label="Layer 1"
     inkscape:groupmode="layer"
     id="layer1">
    <rect
       style="fill:#800000;stroke-width:2.40873"
       id="rect1407"
       width="336.42856"
       height="1.9642859"
       x="40.121582"
       y="133.2971" />
    <text
       xml:space="preserve"
       style="font-style:normal;font-weight:normal;font-size:27.3681px;line-height:1.25;font-family:sans-serif;letter-spacing:0px;word-spacing:0px;fill:#686868;fill-opacity:1;stroke:none;stroke-width:0.684202"
       x="37.07148"
       y="129.34932"
       id="text1411"><tspan
         sodipodi:role="line"
         id="tspan1409"
         x="37.07148"
         y="129.34932"
         style="stroke-width:0.684202">Nome</tspan></text>
    <rect
       y="188.89085"
       x="40.119869"
       height="1.9642859"
       width="336.42856"
       id="rect1407-3"
       style="fill:#800000;stroke-width:2.40873" />
    <text
       id="text1411-8"
       y="185.63327"
       x="38.328411"
       style="font-style:normal;font-weight:normal;font-size:27.3681px;line-height:1.25;font-family:sans-serif;letter-spacing:0px;word-spacing:0px;fill:#686868;fill-opacity:1;stroke:none;stroke-width:0.684202"
       xml:space="preserve"><tspan
         y="185.63327"
         x="38.328411"
         id="tspan1409-1"
         sodipodi:role="line"
         style="stroke-width:0.684202">E-mail</tspan></text>
    <rect
       style="fill:#800000;stroke-width:2.40873"
       id="rect1407-3-8"
       width="336.42856"
       height="1.9642859"
       x="39.038895"
       y="238.1918" />
    <text
       xml:space="preserve"
       style="font-style:normal;font-weight:normal;font-size:27.3681px;line-height:1.25;font-family:sans-serif;letter-spacing:0px;word-spacing:0px;fill:#686868;fill-opacity:1;stroke:none;stroke-width:0.684202"
       x="37.029987"
       y="234.89748"
       id="text1411-8-0"><tspan
         sodipodi:role="line"
         id="tspan1409-1-9"
         x="37.029987"
         y="234.89748"
         style="stroke-width:0.684202">Senha</tspan></text>
    <text
       xml:space="preserve"
       style="font-style:normal;font-weight:normal;font-size:7.12937px;line-height:1.25;font-family:sans-serif;letter-spacing:0px;word-spacing:0px;fill:#800000;fill-opacity:1;stroke:none;stroke-width:0.178235"
       x="359.72723"
       y="142.02214"
       id="text1459"><tspan
         sodipodi:role="line"
         id="tspan1457"
         x="359.72723"
         y="142.02214"
         style="fill:#800000;fill-opacity:1;stroke-width:0.178235">0/20</tspan></text>
    <text
       id="text1459-1"
       y="196.78186"
       x="355.20526"
       style="font-style:normal;font-weight:normal;font-size:7.12937px;line-height:1.25;font-family:sans-serif;letter-spacing:0px;word-spacing:0px;fill:#800000;fill-opacity:1;stroke:none;stroke-width:0.178235"
       xml:space="preserve"><tspan
         style="fill:#800000;fill-opacity:1;stroke-width:0.178235"
         y="196.78186"
         x="355.20526"
         id="tspan1457-5"
         sodipodi:role="line">0/250</tspan></text>
    <text
       id="text1459-0"
       y="246.35509"
       x="363.10654"
       style="font-style:normal;font-weight:normal;font-size:7.12937px;line-height:1.25;font-family:sans-serif;letter-spacing:0px;word-spacing:0px;fill:#800000;fill-opacity:1;stroke:none;stroke-width:0.178235"
       xml:space="preserve"><tspan
         style="fill:#800000;fill-opacity:1;stroke-width:0.178235"
         y="246.35509"
         x="363.10654"
         id="tspan1457-3"
         sodipodi:role="line">0/4</tspan></text>
    <rect
       y="287.15073"
       x="36.142002"
       height="1.9642859"
       width="336.42856"
       id="rect1407-3-8-5"
       style="fill:#800000;stroke-width:2.40873" />
    <text
       id="text1411-8-0-7"
       y="282.20776"
       x="33.485432"
       style="font-style:normal;font-weight:normal;font-size:27.3681px;line-height:1.25;font-family:sans-serif;letter-spacing:0px;word-spacing:0px;fill:#686868;fill-opacity:1;stroke:none;stroke-width:0.684202"
       xml:space="preserve"><tspan
         y="282.20776"
         x="33.485432"
         id="tspan1409-1-9-2"
         sodipodi:role="line"
         style="stroke-width:0.684202">Número</tspan></text>
    <text
       xml:space="preserve"
       style="font-style:normal;font-weight:normal;font-size:7.12937px;line-height:1.25;font-family:sans-serif;letter-spacing:0px;word-spacing:0px;fill:#800000;fill-opacity:1;stroke:none;stroke-width:0.178235"
       x="360.20966"
       y="295.31403"
       id="text1459-0-8"><tspan
         sodipodi:role="line"
         id="tspan1457-3-0"
         x="360.20966"
         y="295.31403"
         style="fill:#800000;fill-opacity:1;stroke-width:0.178235">0/4</tspan></text>
    <rect
       style="fill:none;fill-opacity:1;stroke:#800000;stroke-width:1.714;stroke-miterlimit:4;stroke-dasharray:none;stroke-opacity:1"
       id="rect1407-3-8-5-3"
       width="71.454781"
       height="30.714285"
       x="300.22928"
       y="305.80829" />
    <text
       xml:space="preserve"
       style="font-style:normal;font-weight:normal;font-size:27.3681px;line-height:1.25;font-family:sans-serif;letter-spacing:0px;word-spacing:0px;fill:#686868;fill-opacity:1;stroke:none;stroke-width:0.684202"
       x="32.598946"
       y="329.61533"
       id="text1411-8-0-7-9"><tspan
         style="stroke-width:0.684202"
         sodipodi:role="line"
         id="tspan1409-1-9-2-1"
         x="32.598946"
         y="329.61533">Sexo</tspan></text>
    <text
       xml:space="preserve"
       style="font-style:normal;font-weight:normal;font-size:33.0011px;line-height:1.25;font-family:sans-serif;letter-spacing:0px;word-spacing:0px;fill:#800000;fill-opacity:1;stroke:none;stroke-width:0.825026"
       x="326.52829"
       y="332.74911"
       id="text1561"><tspan
         sodipodi:role="line"
         id="tspan1559"
         x="326.52829"
         y="332.74911"
         style="fill:#800000;fill-opacity:1;stroke-width:0.825026">F</tspan></text>
    <rect
       y="345.46332"
       x="150.57288"
       height="32.33746"
       width="221.40535"
       id="rect1407-3-8-5-3-0"
       style="fill:none;fill-opacity:1;stroke:#800000;stroke-width:1.6515;stroke-miterlimit:4;stroke-dasharray:none;stroke-opacity:1" />
    <text
       id="text1411-8-0-7-9-6"
       y="372.30472"
       x="33.394291"
       style="font-style:normal;font-weight:normal;font-size:27.3681px;line-height:1.25;font-family:sans-serif;letter-spacing:0px;word-spacing:0px;fill:#686868;fill-opacity:1;stroke:none;stroke-width:0.684202"
       xml:space="preserve"><tspan
         y="372.30472"
         x="33.394291"
         id="tspan1409-1-9-2-1-3"
         sodipodi:role="line"
         style="stroke-width:0.684202">Pais</tspan></text>
    <text
       id="text1561-4"
       y="374.22955"
       x="211.37958"
       style="font-style:normal;font-weight:normal;font-size:33.0011px;line-height:1.25;font-family:sans-serif;letter-spacing:0px;word-spacing:0px;fill:#800000;fill-opacity:1;stroke:none;stroke-width:0.825026"
       xml:space="preserve"><tspan
         style="fill:#800000;fill-opacity:1;stroke-width:0.825026"
         y="374.22955"
         x="211.37958"
         id="tspan1559-1"
         sodipodi:role="line">Brasil</tspan></text>
    <rect
       style="fill:none;fill-opacity:1;stroke:#800000;stroke-width:1.6515;stroke-miterlimit:4;stroke-dasharray:none;stroke-opacity:1"
       id="rect1407-3-8-5-3-0-7"
       width="221.40535"
       height="32.33746"
       x="150.44896"
       y="387.87607" />
    <text
       xml:space="preserve"
       style="font-style:normal;font-weight:normal;font-size:27.3681px;line-height:1.25;font-family:sans-serif;letter-spacing:0px;word-spacing:0px;fill:#686868;fill-opacity:1;stroke:none;stroke-width:0.684202"
       x="33.254448"
       y="412.23364"
       id="text1411-8-0-7-9-6-2"><tspan
         style="stroke-width:0.684202"
         sodipodi:role="line"
         id="tspan1409-1-9-2-1-3-9"
         x="33.254448"
         y="412.23364">Estado</tspan></text>
    <text
       xml:space="preserve"
       style="font-style:normal;font-weight:normal;font-size:33.0011px;line-height:1.25;font-family:sans-serif;letter-spacing:0px;word-spacing:0px;fill:#800000;fill-opacity:1;stroke:none;stroke-width:0.825026"
       x="182.4921"
       y="416.33969"
       id="text1561-4-3"><tspan
         sodipodi:role="line"
         id="tspan1559-1-2"
         x="182.4921"
         y="416.33969"
         style="fill:#800000;fill-opacity:1;stroke-width:0.825026">São Paulo</tspan></text>
    <rect
       style="fill:none;fill-opacity:1;stroke:#800000;stroke-width:1.6515;stroke-miterlimit:4;stroke-dasharray:none;stroke-opacity:1"
       id="rect1407-3-8-5-3-0-8"
       width="221.40535"
       height="32.33746"
       x="150.4467"
       y="429.20087" />
    <text
       xml:space="preserve"
       style="font-style:normal;font-weight:normal;font-size:27.3681px;line-height:1.25;font-family:sans-serif;letter-spacing:0px;word-spacing:0px;fill:#686868;fill-opacity:1;stroke:none;stroke-width:0.684202"
       x="33.138332"
       y="450.88962"
       id="text1411-8-0-7-9-6-4"><tspan
         style="stroke-width:0.684202"
         sodipodi:role="line"
         id="tspan1409-1-9-2-1-3-6"
         x="33.138332"
         y="450.88962">Pais</tspan></text>
    <text
       id="text1561-4-3-2"
       y="457.66364"
       x="182.88139"
       style="font-style:normal;font-weight:normal;font-size:33.0011px;line-height:1.25;font-family:sans-serif;letter-spacing:0px;word-spacing:0px;fill:#800000;fill-opacity:1;stroke:none;stroke-width:0.825026"
       xml:space="preserve"><tspan
         style="fill:#800000;fill-opacity:1;stroke-width:0.825026"
         y="457.66364"
         x="182.88139"
         id="tspan1559-1-2-2"
         sodipodi:role="line">São Paulo</tspan></text>
    <path
       style="fill:#686868;fill-opacity:1;stroke-width:0.674011"
       d="m 37.864852,578.40763 c -2.690854,-1.17206 -5.469512,-4.53208 -6.340024,-7.6665 -0.94861,-3.41562 -0.94861,-78.43489 0,-81.85049 0.89233,-3.21299 3.683477,-6.52305 6.488826,-7.6952 3.243995,-1.35543 88.864756,-1.35543 92.108746,0 2.80535,1.17215 5.59649,4.48221 6.48883,7.6952 0.94861,3.4156 0.94861,78.43487 0,81.85049 -0.89234,3.21299 -3.68348,6.52305 -6.48883,7.69519 -3.19211,1.33376 -89.191013,1.30701 -92.257548,-0.0287 z M 123.44255,568.1624 c 2.15378,-0.82648 1.03488,-3.73888 -4.45044,-11.58419 -8.79646,-12.58102 -9.12234,-12.9451 -11.587,-12.9451 -1.68135,0 -2.83019,0.6864 -5.16695,3.08711 -4.190893,4.30557 -6.235693,5.30284 -8.574507,4.18188 -1.035382,-0.49625 -6.382029,-6.81333 -12.370961,-14.61633 -5.801119,-7.55828 -11.043974,-14.02019 -11.650799,-14.35979 -2.666341,-1.49216 -3.639943,-0.0375 -14.597489,21.80998 -10.485995,20.90728 -10.790008,21.63042 -9.75658,23.20763 l 1.066663,1.62793 h 38.010961 c 20.906022,0 38.490722,-0.1841 39.077102,-0.40912 z m -19.46331,-48.03857 c 3.03819,-1.38006 6.1571,-4.70648 6.79467,-7.24672 0.73896,-2.94427 -0.13228,-8.06227 -1.76208,-10.35111 -1.81285,-2.54591 -6.08929,-4.68969 -9.397253,-4.71084 -3.696829,-0.0237 -7.91754,2.41153 -9.82698,5.66974 -3.821629,6.52112 -0.951596,14.37986 6.180223,16.9227 3.453307,1.23127 4.77948,1.18429 8.01142,-0.28377 z"
       id="path1678" />
    <path
       id="path1678-3"
       d="m 152.51662,577.10574 c -2.69085,-1.17206 -5.46951,-4.53208 -6.34002,-7.6665 -0.94861,-3.41562 -0.94861,-78.43489 0,-81.85049 0.89233,-3.21299 3.68348,-6.52305 6.48882,-7.6952 3.244,-1.35543 88.86476,-1.35543 92.10875,0 2.80535,1.17215 5.59649,4.48221 6.48883,7.6952 0.94861,3.4156 0.94861,78.43487 0,81.85049 -0.89234,3.21299 -3.68348,6.52305 -6.48883,7.69519 -3.19211,1.33376 -89.19101,1.30701 -92.25755,-0.0287 z m 85.5777,-10.24523 c 2.15378,-0.82648 1.03488,-3.73888 -4.45044,-11.58419 -8.79646,-12.58102 -9.12234,-12.9451 -11.587,-12.9451 -1.68135,0 -2.83019,0.6864 -5.16695,3.08711 -4.19089,4.30557 -6.23569,5.30284 -8.57451,4.18188 -1.03538,-0.49625 -6.38203,-6.81333 -12.37096,-14.61633 -5.80112,-7.55828 -11.04397,-14.02019 -11.6508,-14.35979 -2.66634,-1.49216 -3.63994,-0.0375 -14.59749,21.80998 -10.48599,20.90728 -10.79,21.63042 -9.75658,23.20763 l 1.06667,1.62793 h 38.01096 c 20.90602,0 38.49072,-0.1841 39.0771,-0.40912 z m -19.46331,-48.03857 c 3.03819,-1.38006 6.1571,-4.70648 6.79467,-7.24672 0.73896,-2.94427 -0.13228,-8.06227 -1.76208,-10.35111 -1.81285,-2.54591 -6.08929,-4.68969 -9.39725,-4.71084 -3.69683,-0.0237 -7.91754,2.41153 -9.82698,5.66974 -3.82163,6.52112 -0.9516,14.37986 6.18022,16.9227 3.45331,1.23127 4.77948,1.18429 8.01142,-0.28377 z"
       style="fill:#686868;fill-opacity:1;stroke-width:0.674011" />
    <path
       id="path1678-1"
       d="m 273.51662,576.60574 c -2.69085,-1.17206 -5.46951,-4.53208 -6.34002,-7.6665 -0.94861,-3.41562 -0.94861,-78.43489 0,-81.85049 0.89233,-3.21299 3.68348,-6.52305 6.48882,-7.6952 3.244,-1.35543 88.86476,-1.35543 92.10875,0 2.80535,1.17215 5.59649,4.48221 6.48883,7.6952 0.94861,3.4156 0.94861,78.43487 0,81.85049 -0.89234,3.21299 -3.68348,6.52305 -6.48883,7.69519 -3.19211,1.33376 -89.19101,1.30701 -92.25755,-0.0287 z m 85.5777,-10.24523 c 2.15378,-0.82648 1.03488,-3.73888 -4.45044,-11.58419 -8.79646,-12.58102 -9.12234,-12.9451 -11.587,-12.9451 -1.68135,0 -2.83019,0.6864 -5.16695,3.08711 -4.19089,4.30557 -6.23569,5.30284 -8.57451,4.18188 -1.03538,-0.49625 -6.38203,-6.81333 -12.37096,-14.61633 -5.80112,-7.55828 -11.04397,-14.02019 -11.6508,-14.35979 -2.66634,-1.49216 -3.63994,-0.0375 -14.59749,21.80998 -10.48599,20.90728 -10.79,21.63042 -9.75658,23.20763 l 1.06667,1.62793 h 38.01096 c 20.90602,0 38.49072,-0.1841 39.0771,-0.40912 z m -19.46331,-48.03857 c 3.03819,-1.38006 6.1571,-4.70648 6.79467,-7.24672 0.73896,-2.94427 -0.13228,-8.06227 -1.76208,-10.35111 -1.81285,-2.54591 -6.08929,-4.68969 -9.39725,-4.71084 -3.69683,-0.0237 -7.91754,2.41153 -9.82698,5.66974 -3.82163,6.52112 -0.9516,14.37986 6.18022,16.9227 3.45331,1.23127 4.77948,1.18429 8.01142,-0.28377 z"
       style="fill:#686868;fill-opacity:1;stroke-width:0.674011" />
    <text
       xml:space="preserve"
       style="font-style:normal;font-weight:normal;font-size:23.8173px;line-height:1.25;font-family:sans-serif;letter-spacing:0px;word-spacing:0px;fill:#000000;fill-opacity:1;stroke:none;stroke-width:0.595432"
       x="5.1610479"
       y="-80.335075"
       id="text1736"><tspan
         sodipodi:role="line"
         x="5.1610479"
         y="-80.335075"
         id="tspan1738"
         style="stroke-width:0.595432">deviceId</tspan><tspan
         sodipodi:role="line"
         x="5.1610479"
         y="-50.563442"
         id="tspan1740"
         style="stroke-width:0.595432">os</tspan><tspan
         sodipodi:role="line"
         x="5.1610479"
         y="-20.791821"
         id="tspan1742"
         style="stroke-width:0.595432">nome do modelo do aparelho</tspan><tspan
         sodipodi:role="line"
         x="5.1610479"
         y="8.9798059"
         id="tspan1744"
         style="stroke-width:0.595432" /></text>
    <path
       style="fill:#686868;fill-opacity:1;stroke:none;stroke-width:0.110978"
       d="m 17.747744,28.981241 -6.241311,-6.242044 6.243712,-6.242978 6.243712,-6.242979 1.108104,1.112278 1.108104,1.112277 -4.330617,4.326481 -4.330616,4.32648 h 9.463773 9.463773 v 1.609174 1.609174 H 27.013459 17.55054 l 4.052765,4.060709 c 2.22902,2.233388 4.16197,4.197614 4.295444,4.364943 l 0.242679,0.304235 -1.076186,1.072149 -1.076185,1.072146 z"
       id="path1762" />
    <text
       id="text1411-86"
       y="28.872896"
       x="145.09105"
       style="font-style:normal;font-weight:normal;font-size:27.3681px;line-height:1.25;font-family:sans-serif;letter-spacing:0px;word-spacing:0px;fill:#686868;fill-opacity:1;stroke:none;stroke-width:0.684202"
       xml:space="preserve"><tspan
         style="stroke-width:0.684202"
         y="28.872896"
         x="145.09105"
         id="tspan1409-2"
         sodipodi:role="line">Cadastro</tspan></text>
    <path
       style="fill:#686868;fill-opacity:1;stroke-width:0.196163"
       d="m 370.61902,42.322004 c -0.5882,-0.29116 -0.93876,-0.64536 -1.22602,-1.23876 -0.39384,-0.81356 -0.40229,-1.11881 -0.40229,-14.53666 0,-13.43802 0.008,-13.72195 0.40412,-14.54044 0.63936,-1.32075 1.51495,-1.64303 4.46381,-1.64303 h 2.39011 v 4.5989 c 0,4.57809 0.002,4.60138 0.47323,5.14928 l 0.47323,0.55039 6.83385,0.0572 c 3.75862,0.0315 7.03472,0.007 7.28022,-0.054 0.24549,-0.0612 0.62066,-0.28557 0.83369,-0.49861 0.36415,-0.36415 0.38734,-0.6691 0.38734,-5.09525 v -4.70792 h 1.42455 1.42456 l 2.98912,2.99379 2.98912,2.99379 v 11.95077 c 0,11.66607 -0.01,11.97065 -0.40412,12.78556 -0.2934,0.60609 -0.63283,0.94551 -1.23891,1.23891 -0.81853,0.39624 -1.10214,0.40412 -14.55334,0.40397 -13.49631,-1.5e-4 -13.73188,-0.007 -14.54227,-0.4079 z m 24.81413,-7.48752 c -0.0562,-4.76152 -0.0754,-4.97685 -0.49598,-5.56647 -0.88697,-1.24346 -0.93963,-1.25021 -9.76299,-1.25021 -8.82335,0 -8.87602,0.007 -9.76298,1.25021 -0.42059,0.58962 -0.43977,0.80495 -0.49599,5.56647 l -0.0585,4.95312 h 10.31744 10.31745 z m -8.78774,-20.84235 v -3.62902 h 1.47122 1.47123 v 3.62902 3.62902 h -1.47123 -1.47122 z"
       id="path1796" />
    <path
       style="fill:none;fill-rule:evenodd;stroke:#000000;stroke-width:1px;stroke-linecap:butt;stroke-linejoin:miter;stroke-opacity:1"
       d="M 385.63309,108.0104 493.60867,287.39571"
       id="path1804"
       inkscape:connector-type="polyline"
       inkscape:connector-curvature="0" />
    <path
       style="fill:none;fill-rule:evenodd;stroke:#000000;stroke-width:1px;stroke-linecap:butt;stroke-linejoin:miter;stroke-opacity:1"
       d="M 370.22747,586.41328 493.60867,287.39571"
       id="path1806"
       inkscape:connector-type="polyline"
       inkscape:connector-curvature="0" />
    <path
       style="fill:none;fill-rule:evenodd;stroke:#000000;stroke-width:0.801876px;stroke-linecap:butt;stroke-linejoin:miter;stroke-opacity:1"
       d="m 557.06546,288.42605 -63.45027,-1.03569"
       id="path1808"
       inkscape:connector-type="polyline"
       inkscape:connector-curvature="0" />
    <text
       xml:space="preserve"
       style="font-style:normal;font-weight:normal;font-size:9.73596px;line-height:1.25;font-family:sans-serif;letter-spacing:0px;word-spacing:0px;fill:#000000;fill-opacity:1;stroke:none;stroke-width:0.243398"
       x="502.21432"
       y="283.58539"
       id="text1812"><tspan
         sodipodi:role="line"
         id="tspan1810"
         x="502.21432"
         y="283.58539"
         style="stroke-width:0.243398">ScrollView</tspan></text>
    <path
       style="fill:none;fill-rule:evenodd;stroke:#000000;stroke-width:0.883439px;stroke-linecap:butt;stroke-linejoin:miter;stroke-opacity:1"
       d="M 3.2403208,46.995582 451.14722,45.542938"
       id="path1814"
       inkscape:connector-type="polyline"
       inkscape:connector-curvature="0" />
    <text
       id="text1812-2"
       y="43.77177"
       x="418.46954"
       style="font-style:normal;font-weight:normal;font-size:12.2509px;line-height:1.25;font-family:sans-serif;letter-spacing:0px;word-spacing:0px;fill:#000000;fill-opacity:1;stroke:none;stroke-width:0.306272"
       xml:space="preserve"><tspan
         style="stroke-width:0.306272"
         y="43.77177"
         x="418.46954"
         id="tspan1810-0"
         sodipodi:role="line">Fixed</tspan></text>
  </g>
</svg>
